
<svg xmlns="http://www.w3.org/2000/svg" width="250" height="250" viewBox="0 0 250 250">
  <g id="Group_22275" data-name="Group 22275" transform="translate(18850 2206)">
    <g id="Group_22274" data-name="Group 22274" transform="translate(-20370.227 -3106.576)">
      <rect id="Rectangle_1" data-name="Rectangle 1" width="250" height="250" rx="125" transform="translate(1520.227 900.576)" fill="#3b52ff"/>
      <g id="Group_23" data-name="Group 23" transform="translate(1577.79 958.319)">
        <g id="Screen_Shot_2021-06-17_at_23" data-name="Screen Shot 2021-06-17 at 23" transform="translate(0)">
          <g id="_e9374dff" data-name="#e9374dff">
            <path id="Path_2" data-name="Path 2" d="M142.807,71.869c5.487-1.3,11.958.627,14.746,5.785q27.571,47.5,54.889,95.148c4.385,7.334-.47,18.418-9.215,19.206a12.924,12.924,0,0,1-13.537-6.162C178.639,167,167.88,147.987,156.806,129.161c-4.591-7.1-16.3-7.076-20.837.045-11.5,19.087-22.184,38.688-33.675,57.771-6.233,9.614-22.983,5.132-23.535-6.3-.758-8.539,6.625-14.933,9.793-22.352,12.286-21.318,24.684-42.58,36.84-63.973C131.1,86.869,133.163,75.265,142.807,71.869Z" transform="translate(-78.705 -71.475)" fill="#fff"/>
            <path id="Path_3" data-name="Path 3" d="M222.85,275.94a13.468,13.468,0,0,1,14.8,6.893c2.866,6.2,8.495,11.637,8.4,18.848-.034,7.038-6.6,13.249-13.649,12.9-4.982,0-9.965.048-14.944-.019-6.792-.515-12.174-6.714-12.227-13.421.108-6.318,4.856-11.215,7.562-16.6C214.669,280.313,218.226,276.835,222.85,275.94Z" transform="translate(-158.008 -199.428)" fill="#fff"/>
          </g>
        </g>
      </g>
    </g>
  </g>
</svg>
