<svg id="Group_25290" data-name="Group 25290" xmlns="http://www.w3.org/2000/svg" xmlns:xlink="http://www.w3.org/1999/xlink" width="48" height="48" viewBox="0 0 48 48">
  <defs>
    <linearGradient id="linear-gradient" x1="0.106" y1="0.641" x2="1.118" gradientUnits="objectBoundingBox">
      <stop offset="0" stop-color="#3e50d8"/>
      <stop offset="1" stop-color="#dae6f5"/>
    </linearGradient>
  </defs>
  <circle id="_3324829" data-name="3324829" cx="24" cy="24" r="24" fill="url(#linear-gradient)"/>
  <g id="Group_25292" data-name="Group 25292" transform="translate(8.238 6.581)">
    <path id="Path_71770" data-name="Path 71770" d="M48.6,128a1.64,1.64,0,0,1,.22.821v16.3A1.641,1.641,0,0,1,48,146.545L33.876,154.7a1.64,1.64,0,0,1-.819.22l-1.9-19.841Z" transform="translate(-17.295 -119.026)" fill="#b9e4ef"/>
    <path id="Path_71771" data-name="Path 71771" d="M271.747,133.185v21.733a1.641,1.641,0,0,1-.822-.22l-14.12-8.152a1.641,1.641,0,0,1-.821-1.421v-16.3a1.64,1.64,0,0,1,.22-.821Z" transform="translate(-255.985 -119.027)" fill="#93d8e4"/>
    <path id="Path_71772" data-name="Path 71772" d="M34.3,8.973a1.64,1.64,0,0,1,.6-.6L49.02.22a1.641,1.641,0,0,1,1.641,0l14.12,8.152a1.64,1.64,0,0,1,.6.6L49.84,17.946Z" transform="translate(-34.079 -0.001)" fill="#daf1f4"/>
    <path id="Path_71775" data-name="Path 71775" d="M349.322,191.318l-.347.176A10.454,10.454,0,0,1,351,190.459l1.44.831A3.515,3.515,0,0,0,349.322,191.318Z" transform="translate(-343.196 -177.108)" fill="#7ad0df"/>
    <g id="Group_23" data-name="Group 23" transform="translate(5.776 8.145)" opacity="0.7">
      <g id="Screen_Shot_2021-06-17_at_23" data-name="Screen Shot 2021-06-17 at 23">
        <g id="_e9374dff" data-name="#e9374dff">
          <path id="Path_2" data-name="Path 2" d="M89.218,71.533a1.956,1.956,0,0,0-2.175.853q-4.067,7.006-8.1,14.034a1.926,1.926,0,0,0,1.359,2.833,1.906,1.906,0,0,0,2-.909c1.63-2.78,3.217-5.584,4.85-8.361a1.894,1.894,0,0,1,3.073.007c1.7,2.815,3.272,5.706,4.967,8.521a1.942,1.942,0,0,0,3.471-.929c.112-1.259-.977-2.2-1.444-3.3-1.812-3.144-3.641-6.28-5.434-9.436C90.945,73.746,90.64,72.034,89.218,71.533Z" transform="translate(-78.705 -71.475)" fill="#fff"/>
          <path id="Path_3" data-name="Path 3" d="M208.652,275.666a1.987,1.987,0,0,0-2.183,1.017c-.423.915-1.253,1.716-1.239,2.78a1.983,1.983,0,0,0,2.013,1.9c.735,0,1.47.007,2.2,0a2.024,2.024,0,0,0,1.8-1.98c-.016-.932-.716-1.654-1.115-2.448A2.113,2.113,0,0,0,208.652,275.666Z" transform="translate(-198.248 -264.381)" fill="#fff"/>
        </g>
      </g>
    </g>
    <path id="Path_71787" data-name="Path 71787" d="M100.322,48.227a.542.542,0,0,0,.271-1.011l-8.046-4.645a.542.542,0,0,0-.542.938l8.046,4.645A.539.539,0,0,0,100.322,48.227Z" transform="translate(-73.587 -39.519)" fill="#ecf9f9"/>
    <path id="Path_71788" data-name="Path 71788" d="M82.846,158.561a.54.54,0,0,0,.27-.073l8.707-5.027a.542.542,0,1,0-.542-.938l-8.707,5.027a.542.542,0,0,0,.271,1.011Z" transform="translate(-64.157 -141.764)" fill="#fff"/>
    <path id="Path_71789" data-name="Path 71789" d="M260,177.277a.557.557,0,0,0,.525-.564V163.3a.542.542,0,0,0-.271-.469l-11.165-6.446a.542.542,0,0,0-.542.938l10.895,6.29v13.122A.542.542,0,0,0,260,177.277Z" transform="translate(-244.22 -145.356)" fill="#fff"/>
  </g>
</svg>
